<?xml version="1.0" standalone="no"?>
<!DOCTYPE svg PUBLIC "-//W3C//DTD SVG 20010904//EN"
 "http://www.w3.org/TR/2001/REC-SVG-20010904/DTD/svg10.dtd">
<svg version="1.0" xmlns="http://www.w3.org/2000/svg"
 width="512.000000pt" height="512.000000pt" viewBox="0 0 512.000000 512.000000"
 preserveAspectRatio="xMidYMid meet">

<g transform="translate(0.000000,512.000000) scale(0.100000,-0.100000)"
fill="#000000" stroke="none">
<path d="M665 4947 c-134 -45 -222 -138 -255 -269 -11 -41 -16 -47 -63 -68
-63 -29 -125 -90 -157 -155 -20 -41 -25 -65 -25 -135 1 -77 4 -91 34 -148 38
-70 69 -100 145 -140 l51 -27 485 0 485 0 63 34 c70 38 101 70 140 145 22 43
26 64 27 136 0 79 -2 89 -36 150 -39 71 -104 129 -170 150 -29 10 -44 23 -56
47 -37 78 -142 138 -228 131 -35 -3 -43 1 -87 48 -87 93 -243 137 -353 101z
m156 -159 c53 -18 95 -55 118 -103 33 -70 89 -95 135 -60 48 37 126 -3 126
-63 0 -47 29 -73 89 -83 131 -20 193 -154 118 -253 -51 -67 -47 -66 -527 -66
-480 0 -476 -1 -527 66 -75 99 -13 233 118 253 66 11 89 36 89 98 0 155 127
257 261 211z"/>
<path d="M2115 4946 c-11 -8 -238 -451 -505 -985 -267 -534 -487 -971 -490
-971 -3 0 -38 46 -78 103 l-72 102 56 5 c67 6 98 35 92 85 -6 44 -422 623
-454 631 -55 14 -66 2 -285 -303 -138 -194 -214 -309 -217 -328 -6 -50 25 -79
92 -85 l56 -5 -75 -105 c-83 -116 -91 -145 -50 -185 24 -25 27 -25 200 -25
l175 0 0 -120 0 -120 -175 0 -176 0 -26 -26 -26 -26 6 -135 c39 -814 468
-1531 1167 -1953 264 -159 567 -267 890 -317 163 -25 520 -24 685 1 725 111
1338 521 1715 1146 203 335 317 718 337 1123 l6 135 -26 26 c-26 26 -29 26
-166 26 l-140 0 6 50 c9 78 -12 136 -71 195 -58 57 -103 75 -192 75 l-59 0
-34 65 c-37 72 -68 103 -145 143 -69 36 -197 39 -264 5 -39 -19 -43 -20 -51
-5 -5 10 -131 283 -281 607 -149 325 -280 598 -292 608 -26 22 -70 22 -96 0
-12 -10 -87 -162 -168 -338 -80 -176 -148 -322 -150 -324 -1 -2 -140 272 -308
607 -187 374 -313 615 -325 622 -27 14 -63 13 -86 -4z m219 -595 l170 -339
-43 -51 c-24 -28 -46 -51 -49 -51 -4 0 -50 71 -102 157 -102 169 -121 187
-177 167 -22 -7 -50 -46 -123 -167 -52 -86 -97 -157 -100 -157 -3 0 -24 25
-48 55 l-42 54 167 336 c92 184 170 335 173 335 3 0 81 -153 174 -339z m979
-472 c59 -127 107 -235 107 -241 0 -8 -65 -125 -76 -137 -2 -2 -28 19 -58 47
-74 70 -98 70 -171 1 l-54 -51 -35 71 c-20 39 -36 77 -36 86 0 19 201 455 210
455 4 0 55 -104 113 -231z m-2549 -354 l115 -160 -56 -5 c-42 -4 -60 -11 -74
-29 -33 -41 -24 -70 55 -182 l74 -104 -119 -3 c-65 -1 -173 -1 -238 0 l-119 3
74 104 c79 112 88 141 55 182 -14 18 -32 25 -74 29 l-56 5 117 163 c63 89 119
161 124 160 4 -2 59 -75 122 -163z m2175 -154 c42 -83 52 -91 108 -91 28 0 45
10 94 57 l59 56 59 -56 c49 -47 66 -57 94 -57 55 0 64 7 109 86 23 41 45 71
49 67 4 -5 49 -97 99 -207 78 -168 91 -204 85 -232 -5 -31 -9 -34 -43 -34 -52
-1 -111 -30 -154 -78 -46 -50 -61 -100 -56 -180 l3 -62 -325 0 -325 0 3 66 c5
85 -16 140 -72 192 -23 21 -48 41 -54 43 -8 3 29 94 104 257 65 138 119 252
121 252 1 0 21 -35 42 -79z m-709 -353 c49 -25 90 -89 90 -141 0 -16 10 -38
25 -52 22 -23 31 -25 124 -25 113 0 144 -10 162 -51 15 -37 -2 -82 -37 -98
-17 -7 -141 -11 -394 -11 -253 0 -377 4 -394 11 -35 16 -52 61 -37 98 16 37
49 51 122 51 50 0 64 4 84 25 15 14 25 36 25 52 0 52 41 116 90 141 24 12 56
22 70 22 14 0 46 -10 70 -22z m1840 0 c49 -25 90 -89 90 -141 0 -16 10 -38 25
-52 22 -23 31 -25 124 -25 113 0 144 -10 162 -51 15 -37 -2 -82 -37 -98 -17
-7 -141 -11 -394 -11 -253 0 -377 4 -394 11 -35 16 -52 61 -37 98 16 37 49 51
122 51 50 0 64 4 84 25 15 14 25 36 25 52 0 52 41 116 90 141 24 12 56 22 70
22 14 0 46 -10 70 -22z m-3060 -258 l-60 -120 -115 0 -115 0 0 120 0 120 175
0 175 0 -60 -120z m105 -322 c-17 -106 -94 -207 -189 -250 -48 -22 -65 -23
-305 -26 -194 -3 -256 -1 -262 9 -6 11 -19 108 -33 257 l-5 52 400 0 401 0 -7
-42z m3672 -53 c-4 -53 -12 -124 -18 -160 l-11 -64 -596 -3 -597 -3 -60 -29
c-77 -38 -153 -114 -191 -191 -27 -56 -29 -68 -29 -175 0 -109 2 -118 32 -177
l31 -63 -186 0 c-214 0 -240 -7 -304 -78 -45 -50 -61 -100 -56 -179 l3 -62
-130 -3 c-149 -3 -193 -18 -264 -89 -67 -67 -86 -118 -86 -229 0 -111 19 -162
86 -229 66 -66 118 -85 237 -89 56 -2 102 -5 102 -7 0 -1 -7 -22 -15 -45 -8
-23 -15 -73 -15 -111 l0 -69 -77 -1 c-135 -2 -255 2 -343 12 -243 28 -511 108
-740 222 l-145 72 55 6 c69 7 106 27 153 78 44 49 60 99 55 178 l-3 61 51 4
c98 8 199 80 246 176 19 39 23 63 23 142 0 79 -4 103 -23 142 -30 60 -90 120
-150 150 l-47 23 -617 3 -617 2 -22 48 c-27 60 -104 277 -114 320 l-7 32 247
0 c222 0 251 2 308 21 76 26 118 51 179 107 86 80 148 209 148 307 l0 45 1757
0 1756 0 -6 -95z m-72 -432 c-97 -326 -234 -583 -443 -834 -319 -381 -781
-656 -1263 -751 -95 -19 -112 -20 -120 -7 -29 46 15 143 81 177 24 12 57 22
73 22 38 0 77 40 77 80 0 19 -9 40 -25 55 l-24 25 -228 0 c-217 0 -231 1 -273
22 -48 25 -90 89 -90 138 0 49 42 113 90 138 42 21 56 22 273 22 l228 0 24 25
c16 15 25 36 25 55 0 36 -38 80 -69 80 -87 0 -121 114 -45 149 17 7 134 11
365 11 l340 0 24 25 c56 56 18 127 -74 139 -133 18 -216 108 -215 236 1 115
70 204 179 231 17 4 272 7 567 8 l537 1 -14 -47z m-2965 -535 c48 -25 90 -89
90 -138 0 -49 -42 -113 -90 -137 -40 -21 -59 -23 -193 -23 -144 0 -149 -1
-172 -25 -33 -32 -33 -78 0 -110 13 -14 33 -25 44 -25 61 0 103 -56 82 -109
-19 -43 -48 -51 -199 -51 l-138 0 -90 79 c-153 133 -321 331 -427 500 l-37 61
543 0 543 0 44 -22z"/>
<path d="M3975 4935 c-22 -21 -25 -33 -25 -95 0 -62 3 -74 25 -95 15 -16 36
-25 55 -25 19 0 40 9 55 25 22 21 25 33 25 95 0 62 -3 74 -25 95 -15 16 -36
25 -55 25 -19 0 -40 -9 -55 -25z"/>
<path d="M3465 4725 c-42 -41 -34 -79 28 -142 64 -63 93 -68 139 -23 42 43 34
80 -31 143 -58 56 -97 62 -136 22z"/>
<path d="M4453 4697 c-63 -64 -68 -93 -23 -139 40 -40 79 -33 138 25 61 60 67
103 19 147 -37 35 -74 26 -134 -33z"/>
<path d="M3911 4624 c-253 -68 -410 -331 -346 -579 62 -238 291 -393 531 -358
262 38 449 289 406 546 -48 280 -324 463 -591 391z m245 -173 c64 -29 137
-101 165 -165 17 -38 23 -70 23 -126 0 -94 -27 -159 -92 -223 -66 -65 -129
-91 -222 -91 -126 -1 -227 61 -287 177 -23 44 -27 64 -27 137 -1 78 2 90 33
148 80 148 255 210 407 143z"/>
<path d="M4615 4215 c-16 -15 -25 -36 -25 -55 0 -19 9 -40 25 -55 21 -22 33
-25 95 -25 62 0 74 3 95 25 16 15 25 36 25 55 0 19 -9 40 -25 55 -21 22 -33
25 -95 25 -62 0 -74 -3 -95 -25z"/>
<path d="M4430 3762 c-45 -46 -40 -75 23 -139 60 -59 97 -68 134 -33 48 44 42
87 -19 147 -59 58 -98 65 -138 25z"/>
<path d="M3975 3575 c-22 -21 -25 -33 -25 -95 0 -62 3 -74 25 -95 15 -16 36
-25 55 -25 19 0 40 9 55 25 22 21 25 33 25 95 0 62 -3 74 -25 95 -15 16 -36
25 -55 25 -19 0 -40 -9 -55 -25z"/>
</g>
</svg>
